<svg height='300px' width='300px'  fill="#A2A2A2" xmlns="http://www.w3.org/2000/svg" xmlns:xlink="http://www.w3.org/1999/xlink" version="1.1" x="0px" y="0px" viewBox="0 0 100 100" enable-background="new 0 0 100 100" xml:space="preserve"><path fill="none" stroke="#A2A2A2" stroke-width="4" stroke-linecap="round" stroke-miterlimit="10" d="M23.789,14.676  c4.228-5.046,10.504-8.061,17.145-8.147"></path><path fill="none" stroke="#A2A2A2" stroke-width="4" stroke-linecap="round" stroke-miterlimit="10" d="M90.428,44.028  c3.055,5.828,3.453,12.781,1.005,18.955"></path><path fill="none" stroke="#A2A2A2" stroke-width="4" stroke-linecap="round" stroke-miterlimit="10" d="M29.251,88.865  c-6.337-1.772-11.672-6.25-14.486-12.265"></path><path d="M68.734,18.929l-31.241-4.322c-1.562-0.217-3.604,0.613-4.562,1.854L13.73,41.289c-0.958,1.241-0.471,2.421,1.093,2.637  l31.241,4.323c1.561,0.215,3.604-0.613,4.565-1.854l19.199-24.831C70.785,20.324,70.297,19.145,68.734,18.929z M45.53,31.947  c-1.272,1.646-3.986,2.747-6.057,2.461c-2.072-0.287-2.72-1.854-1.446-3.499c1.274-1.647,3.985-2.75,6.057-2.463  C46.154,28.732,46.803,30.301,45.53,31.947z"></path><path d="M73.533,22.704c-0.594-1.45-1.861-1.62-2.828-0.375L51.342,47.224c-0.967,1.244-1.271,3.433-0.678,4.883l11.902,29.041  c0.596,1.449,1.863,1.62,2.83,0.376L84.76,56.629c0.969-1.244,1.27-3.431,0.676-4.881L73.533,22.704z M60.209,54.184  c-1.283,1.649-2.963,1.431-3.754-0.498c-0.789-1.924-0.389-4.827,0.896-6.477c1.283-1.653,2.967-1.427,3.754,0.497  C61.896,49.634,61.494,52.53,60.209,54.184z M69.48,55.413c-1.285,1.65-2.967,1.429-3.754-0.495  c-0.791-1.927-0.389-4.829,0.895-6.478c1.285-1.654,2.967-1.428,3.754,0.496C71.164,50.863,70.766,53.764,69.48,55.413z   M78.75,56.643c-1.283,1.651-2.967,1.43-3.756-0.497s-0.387-4.829,0.896-6.478c1.285-1.652,2.963-1.431,3.754,0.499  C80.436,52.095,80.033,54.991,78.75,56.643z"></path><path d="M45.94,49.443L14.696,45.12c-1.562-0.216-2.351,0.787-1.763,2.243l11.736,29.107c0.587,1.455,2.327,2.812,3.887,3.027  l31.245,4.324c1.561,0.215,2.348-0.791,1.762-2.244L49.824,52.469C49.24,51.012,47.499,49.66,45.94,49.443z M33.224,76.031  c-2.074-0.287-4.383-2.086-5.161-4.014c-0.78-1.933,0.268-3.267,2.341-2.979c2.071,0.29,4.383,2.083,5.162,4.014  C36.343,74.982,35.292,76.317,33.224,76.031z M25.916,58.055c-2.072-0.287-4.381-2.083-5.16-4.016  c-0.779-1.93,0.27-3.262,2.342-2.976c2.07,0.287,4.382,2.084,5.162,4.017C29.038,57.009,27.987,58.34,25.916,58.055z M38.658,67.967  c-2.073-0.288-4.383-2.084-5.16-4.015c-0.779-1.933,0.269-3.263,2.34-2.979c2.072,0.289,4.383,2.084,5.161,4.018  C41.778,66.92,40.729,68.253,38.658,67.967z M51.402,77.879c-2.072-0.285-4.383-2.087-5.162-4.017  c-0.779-1.93,0.269-3.261,2.342-2.973c2.07,0.286,4.378,2.081,5.158,4.012C54.518,76.829,53.473,78.167,51.402,77.879z   M44.092,59.902c-2.071-0.286-4.382-2.082-5.16-4.015c-0.778-1.929,0.271-3.263,2.34-2.977c2.074,0.288,4.385,2.085,5.163,4.016  C47.214,58.857,46.165,60.19,44.092,59.902z"></path></svg>